<mxfile host="app.diagrams.net" modified="2024-01-19T06:37:13.890Z" agent="Mozilla/5.0 (X11; Linux x86_64; rv:109.0) Gecko/20100101 Firefox/114.0" etag="s6VLG7bKacrL7l4B5BGD" version="22.1.21" type="github">
  <diagram name="Page-1" id="b520641d-4fe3-3701-9064-5fc419738815">
    <mxGraphModel dx="1187" dy="600" grid="1" gridSize="10" guides="1" tooltips="1" connect="1" arrows="1" fold="1" page="1" pageScale="1" pageWidth="1100" pageHeight="850" background="none" math="0" shadow="0">
      <root>
        <mxCell id="0" />
        <mxCell id="1" parent="0" />
        <mxCell id="BG9GXNCdLVEFjjHwcvrj-3" value="&lt;font style=&quot;font-size: 18px;&quot;&gt;0-Level Data Flow Diagram&lt;/font&gt;" style="text;html=1;align=center;verticalAlign=middle;resizable=0;points=[];autosize=1;strokeColor=none;fillColor=none;" vertex="1" parent="1">
          <mxGeometry x="30" y="166" width="240" height="40" as="geometry" />
        </mxCell>
        <mxCell id="BG9GXNCdLVEFjjHwcvrj-5" value="&lt;font style=&quot;font-size: 24px;&quot;&gt;Data FLow Diagram for Car Rental Management System&lt;br&gt;&lt;/font&gt;" style="text;html=1;align=center;verticalAlign=middle;resizable=0;points=[];autosize=1;strokeColor=none;fillColor=none;" vertex="1" parent="1">
          <mxGeometry x="236" y="45" width="630" height="40" as="geometry" />
        </mxCell>
        <mxCell id="BG9GXNCdLVEFjjHwcvrj-40" value="&lt;div&gt;&lt;font style=&quot;font-size: 18px;&quot;&gt;1-Level Data Flow Diagram&lt;/font&gt;&lt;/div&gt;&lt;div&gt;&lt;font size=&quot;3&quot;&gt;&lt;br&gt;&lt;/font&gt;&lt;/div&gt;" style="text;html=1;align=center;verticalAlign=middle;resizable=0;points=[];autosize=1;strokeColor=none;fillColor=none;" vertex="1" parent="1">
          <mxGeometry x="30" y="650" width="240" height="50" as="geometry" />
        </mxCell>
        <mxCell id="BG9GXNCdLVEFjjHwcvrj-61" style="edgeStyle=orthogonalEdgeStyle;rounded=0;orthogonalLoop=1;jettySize=auto;html=1;exitX=1;exitY=1;exitDx=0;exitDy=0;entryX=0;entryY=0.75;entryDx=0;entryDy=0;" edge="1" parent="1" source="BG9GXNCdLVEFjjHwcvrj-62" target="BG9GXNCdLVEFjjHwcvrj-73">
          <mxGeometry relative="1" as="geometry">
            <Array as="points">
              <mxPoint x="564" y="551" />
            </Array>
          </mxGeometry>
        </mxCell>
        <mxCell id="BG9GXNCdLVEFjjHwcvrj-62" value="&lt;font style=&quot;font-size: 18px;&quot;&gt;Car Rental &lt;br&gt;Management System&lt;/font&gt;" style="ellipse;whiteSpace=wrap;html=1;aspect=fixed;" vertex="1" parent="1">
          <mxGeometry x="410" y="243" width="180" height="180" as="geometry" />
        </mxCell>
        <mxCell id="BG9GXNCdLVEFjjHwcvrj-63" style="edgeStyle=orthogonalEdgeStyle;rounded=0;orthogonalLoop=1;jettySize=auto;html=1;exitX=1;exitY=0.25;exitDx=0;exitDy=0;" edge="1" parent="1" source="BG9GXNCdLVEFjjHwcvrj-64" target="BG9GXNCdLVEFjjHwcvrj-62">
          <mxGeometry relative="1" as="geometry">
            <Array as="points">
              <mxPoint x="320" y="331" />
              <mxPoint x="320" y="331" />
            </Array>
          </mxGeometry>
        </mxCell>
        <mxCell id="BG9GXNCdLVEFjjHwcvrj-64" value="User" style="whiteSpace=wrap;html=1;" vertex="1" parent="1">
          <mxGeometry x="200" y="321" width="80" height="40" as="geometry" />
        </mxCell>
        <mxCell id="BG9GXNCdLVEFjjHwcvrj-65" style="edgeStyle=orthogonalEdgeStyle;rounded=0;orthogonalLoop=1;jettySize=auto;html=1;entryX=0.067;entryY=0.783;entryDx=0;entryDy=0;entryPerimeter=0;" edge="1" parent="1" source="BG9GXNCdLVEFjjHwcvrj-67" target="BG9GXNCdLVEFjjHwcvrj-62">
          <mxGeometry relative="1" as="geometry">
            <mxPoint x="250" y="521" as="targetPoint" />
          </mxGeometry>
        </mxCell>
        <mxCell id="BG9GXNCdLVEFjjHwcvrj-66" value="Vehicle Info" style="edgeLabel;html=1;align=center;verticalAlign=middle;resizable=0;points=[];" vertex="1" connectable="0" parent="BG9GXNCdLVEFjjHwcvrj-65">
          <mxGeometry x="-0.597" y="2" relative="1" as="geometry">
            <mxPoint y="-8" as="offset" />
          </mxGeometry>
        </mxCell>
        <mxCell id="BG9GXNCdLVEFjjHwcvrj-67" value="Driver " style="whiteSpace=wrap;html=1;" vertex="1" parent="1">
          <mxGeometry x="196" y="521" width="84" height="40" as="geometry" />
        </mxCell>
        <mxCell id="BG9GXNCdLVEFjjHwcvrj-68" style="edgeStyle=orthogonalEdgeStyle;rounded=0;orthogonalLoop=1;jettySize=auto;html=1;exitX=0.111;exitY=0.844;exitDx=0;exitDy=0;entryX=1;entryY=0.75;entryDx=0;entryDy=0;exitPerimeter=0;" edge="1" parent="1" source="BG9GXNCdLVEFjjHwcvrj-62" target="BG9GXNCdLVEFjjHwcvrj-67">
          <mxGeometry relative="1" as="geometry">
            <Array as="points">
              <mxPoint x="430" y="551" />
            </Array>
          </mxGeometry>
        </mxCell>
        <mxCell id="BG9GXNCdLVEFjjHwcvrj-69" style="edgeStyle=orthogonalEdgeStyle;rounded=0;orthogonalLoop=1;jettySize=auto;html=1;exitX=-0.006;exitY=0.601;exitDx=0;exitDy=0;entryX=1;entryY=0.75;entryDx=0;entryDy=0;exitPerimeter=0;" edge="1" parent="1" source="BG9GXNCdLVEFjjHwcvrj-62" target="BG9GXNCdLVEFjjHwcvrj-64">
          <mxGeometry relative="1" as="geometry" />
        </mxCell>
        <mxCell id="BG9GXNCdLVEFjjHwcvrj-70" value="Payment Management" style="whiteSpace=wrap;html=1;" vertex="1" parent="1">
          <mxGeometry x="720" y="321" width="80" height="40" as="geometry" />
        </mxCell>
        <mxCell id="BG9GXNCdLVEFjjHwcvrj-71" style="edgeStyle=orthogonalEdgeStyle;rounded=0;orthogonalLoop=1;jettySize=auto;html=1;exitX=1;exitY=0.5;exitDx=0;exitDy=0;entryX=0.032;entryY=0.368;entryDx=0;entryDy=0;entryPerimeter=0;" edge="1" parent="1" source="BG9GXNCdLVEFjjHwcvrj-62" target="BG9GXNCdLVEFjjHwcvrj-70">
          <mxGeometry relative="1" as="geometry">
            <Array as="points">
              <mxPoint x="590" y="336" />
            </Array>
          </mxGeometry>
        </mxCell>
        <mxCell id="BG9GXNCdLVEFjjHwcvrj-72" style="edgeStyle=orthogonalEdgeStyle;rounded=0;orthogonalLoop=1;jettySize=auto;html=1;exitX=0;exitY=0.75;exitDx=0;exitDy=0;entryX=1;entryY=0.598;entryDx=0;entryDy=0;entryPerimeter=0;" edge="1" parent="1" source="BG9GXNCdLVEFjjHwcvrj-70" target="BG9GXNCdLVEFjjHwcvrj-62">
          <mxGeometry relative="1" as="geometry" />
        </mxCell>
        <mxCell id="BG9GXNCdLVEFjjHwcvrj-73" value="Reservation Management" style="rounded=0;whiteSpace=wrap;html=1;" vertex="1" parent="1">
          <mxGeometry x="720" y="521" width="80" height="40" as="geometry" />
        </mxCell>
        <mxCell id="BG9GXNCdLVEFjjHwcvrj-74" style="edgeStyle=orthogonalEdgeStyle;rounded=0;orthogonalLoop=1;jettySize=auto;html=1;entryX=0.067;entryY=0.783;entryDx=0;entryDy=0;entryPerimeter=0;exitX=-0.039;exitY=0.525;exitDx=0;exitDy=0;exitPerimeter=0;" edge="1" parent="1" source="BG9GXNCdLVEFjjHwcvrj-73">
          <mxGeometry relative="1" as="geometry">
            <mxPoint x="570.74" y="386" as="targetPoint" />
            <mxPoint x="428.74" y="543" as="sourcePoint" />
          </mxGeometry>
        </mxCell>
        <mxCell id="BG9GXNCdLVEFjjHwcvrj-75" value="Schedule" style="text;html=1;align=center;verticalAlign=middle;resizable=0;points=[];autosize=1;strokeColor=none;fillColor=none;" vertex="1" parent="1">
          <mxGeometry x="286" y="309" width="70" height="30" as="geometry" />
        </mxCell>
        <mxCell id="BG9GXNCdLVEFjjHwcvrj-76" value="Driver Info" style="text;html=1;align=center;verticalAlign=middle;resizable=0;points=[];autosize=1;strokeColor=none;fillColor=none;" vertex="1" parent="1">
          <mxGeometry x="291" y="339" width="80" height="30" as="geometry" />
        </mxCell>
        <mxCell id="BG9GXNCdLVEFjjHwcvrj-77" value="Payment Received" style="text;html=1;align=center;verticalAlign=middle;resizable=0;points=[];autosize=1;strokeColor=none;fillColor=none;" vertex="1" parent="1">
          <mxGeometry x="591" y="309" width="120" height="30" as="geometry" />
        </mxCell>
        <mxCell id="BG9GXNCdLVEFjjHwcvrj-78" value="Payment Verified" style="text;html=1;align=center;verticalAlign=middle;resizable=0;points=[];autosize=1;strokeColor=none;fillColor=none;" vertex="1" parent="1">
          <mxGeometry x="596" y="339" width="110" height="30" as="geometry" />
        </mxCell>
        <mxCell id="BG9GXNCdLVEFjjHwcvrj-79" value="Customer Info" style="text;html=1;align=center;verticalAlign=middle;resizable=0;points=[];autosize=1;strokeColor=none;fillColor=none;" vertex="1" parent="1">
          <mxGeometry x="300" y="551" width="100" height="30" as="geometry" />
        </mxCell>
        <mxCell id="BG9GXNCdLVEFjjHwcvrj-80" value="Cab Scheduled" style="text;html=1;align=center;verticalAlign=middle;resizable=0;points=[];autosize=1;strokeColor=none;fillColor=none;" vertex="1" parent="1">
          <mxGeometry x="570" y="519" width="110" height="30" as="geometry" />
        </mxCell>
        <mxCell id="BG9GXNCdLVEFjjHwcvrj-81" value="Ride completed" style="text;html=1;align=center;verticalAlign=middle;resizable=0;points=[];autosize=1;strokeColor=none;fillColor=none;" vertex="1" parent="1">
          <mxGeometry x="576" y="539" width="110" height="30" as="geometry" />
        </mxCell>
        <mxCell id="BG9GXNCdLVEFjjHwcvrj-83" style="edgeStyle=orthogonalEdgeStyle;rounded=0;orthogonalLoop=1;jettySize=auto;html=1;exitX=1;exitY=1;exitDx=0;exitDy=0;entryX=0;entryY=0.75;entryDx=0;entryDy=0;" edge="1" parent="1" source="BG9GXNCdLVEFjjHwcvrj-84" target="BG9GXNCdLVEFjjHwcvrj-95">
          <mxGeometry relative="1" as="geometry">
            <Array as="points">
              <mxPoint x="528" y="1108" />
            </Array>
          </mxGeometry>
        </mxCell>
        <mxCell id="BG9GXNCdLVEFjjHwcvrj-84" value="&lt;font style=&quot;font-size: 18px;&quot;&gt;Car Rental &lt;br&gt;Management System&lt;/font&gt;" style="ellipse;whiteSpace=wrap;html=1;aspect=fixed;" vertex="1" parent="1">
          <mxGeometry x="374" y="800" width="180" height="180" as="geometry" />
        </mxCell>
        <mxCell id="BG9GXNCdLVEFjjHwcvrj-85" style="edgeStyle=orthogonalEdgeStyle;rounded=0;orthogonalLoop=1;jettySize=auto;html=1;exitX=1;exitY=0.25;exitDx=0;exitDy=0;" edge="1" parent="1" source="BG9GXNCdLVEFjjHwcvrj-86" target="BG9GXNCdLVEFjjHwcvrj-84">
          <mxGeometry relative="1" as="geometry">
            <Array as="points">
              <mxPoint x="284" y="888" />
              <mxPoint x="284" y="888" />
            </Array>
          </mxGeometry>
        </mxCell>
        <mxCell id="BG9GXNCdLVEFjjHwcvrj-86" value="User" style="whiteSpace=wrap;html=1;" vertex="1" parent="1">
          <mxGeometry x="164" y="878" width="80" height="40" as="geometry" />
        </mxCell>
        <mxCell id="BG9GXNCdLVEFjjHwcvrj-87" style="edgeStyle=orthogonalEdgeStyle;rounded=0;orthogonalLoop=1;jettySize=auto;html=1;entryX=0.067;entryY=0.783;entryDx=0;entryDy=0;entryPerimeter=0;" edge="1" parent="1" source="BG9GXNCdLVEFjjHwcvrj-89" target="BG9GXNCdLVEFjjHwcvrj-84">
          <mxGeometry relative="1" as="geometry">
            <mxPoint x="214" y="1078" as="targetPoint" />
          </mxGeometry>
        </mxCell>
        <mxCell id="BG9GXNCdLVEFjjHwcvrj-88" value="Vehicle Info" style="edgeLabel;html=1;align=center;verticalAlign=middle;resizable=0;points=[];" vertex="1" connectable="0" parent="BG9GXNCdLVEFjjHwcvrj-87">
          <mxGeometry x="-0.597" y="2" relative="1" as="geometry">
            <mxPoint y="-8" as="offset" />
          </mxGeometry>
        </mxCell>
        <mxCell id="BG9GXNCdLVEFjjHwcvrj-89" value="Driver " style="whiteSpace=wrap;html=1;" vertex="1" parent="1">
          <mxGeometry x="160" y="1078" width="84" height="40" as="geometry" />
        </mxCell>
        <mxCell id="BG9GXNCdLVEFjjHwcvrj-90" style="edgeStyle=orthogonalEdgeStyle;rounded=0;orthogonalLoop=1;jettySize=auto;html=1;exitX=0.111;exitY=0.844;exitDx=0;exitDy=0;entryX=1;entryY=0.75;entryDx=0;entryDy=0;exitPerimeter=0;" edge="1" parent="1" source="BG9GXNCdLVEFjjHwcvrj-84" target="BG9GXNCdLVEFjjHwcvrj-89">
          <mxGeometry relative="1" as="geometry">
            <Array as="points">
              <mxPoint x="394" y="1108" />
            </Array>
          </mxGeometry>
        </mxCell>
        <mxCell id="BG9GXNCdLVEFjjHwcvrj-91" style="edgeStyle=orthogonalEdgeStyle;rounded=0;orthogonalLoop=1;jettySize=auto;html=1;exitX=-0.006;exitY=0.601;exitDx=0;exitDy=0;entryX=1;entryY=0.75;entryDx=0;entryDy=0;exitPerimeter=0;" edge="1" parent="1" source="BG9GXNCdLVEFjjHwcvrj-84" target="BG9GXNCdLVEFjjHwcvrj-86">
          <mxGeometry relative="1" as="geometry" />
        </mxCell>
        <mxCell id="BG9GXNCdLVEFjjHwcvrj-92" value="Payment Management" style="whiteSpace=wrap;html=1;" vertex="1" parent="1">
          <mxGeometry x="684" y="878" width="80" height="40" as="geometry" />
        </mxCell>
        <mxCell id="BG9GXNCdLVEFjjHwcvrj-93" style="edgeStyle=orthogonalEdgeStyle;rounded=0;orthogonalLoop=1;jettySize=auto;html=1;exitX=1;exitY=0.5;exitDx=0;exitDy=0;entryX=0.032;entryY=0.368;entryDx=0;entryDy=0;entryPerimeter=0;" edge="1" parent="1" source="BG9GXNCdLVEFjjHwcvrj-84" target="BG9GXNCdLVEFjjHwcvrj-92">
          <mxGeometry relative="1" as="geometry">
            <Array as="points">
              <mxPoint x="554" y="893" />
            </Array>
          </mxGeometry>
        </mxCell>
        <mxCell id="BG9GXNCdLVEFjjHwcvrj-94" style="edgeStyle=orthogonalEdgeStyle;rounded=0;orthogonalLoop=1;jettySize=auto;html=1;exitX=0;exitY=0.75;exitDx=0;exitDy=0;entryX=1;entryY=0.598;entryDx=0;entryDy=0;entryPerimeter=0;" edge="1" parent="1" source="BG9GXNCdLVEFjjHwcvrj-92" target="BG9GXNCdLVEFjjHwcvrj-84">
          <mxGeometry relative="1" as="geometry" />
        </mxCell>
        <mxCell id="BG9GXNCdLVEFjjHwcvrj-95" value="Reservation Management" style="rounded=0;whiteSpace=wrap;html=1;" vertex="1" parent="1">
          <mxGeometry x="684" y="1078" width="80" height="40" as="geometry" />
        </mxCell>
        <mxCell id="BG9GXNCdLVEFjjHwcvrj-96" style="edgeStyle=orthogonalEdgeStyle;rounded=0;orthogonalLoop=1;jettySize=auto;html=1;entryX=0.067;entryY=0.783;entryDx=0;entryDy=0;entryPerimeter=0;exitX=-0.039;exitY=0.525;exitDx=0;exitDy=0;exitPerimeter=0;" edge="1" parent="1" source="BG9GXNCdLVEFjjHwcvrj-95">
          <mxGeometry relative="1" as="geometry">
            <mxPoint x="534.74" y="943" as="targetPoint" />
            <mxPoint x="392.74" y="1100" as="sourcePoint" />
          </mxGeometry>
        </mxCell>
        <mxCell id="BG9GXNCdLVEFjjHwcvrj-97" value="Schedule" style="text;html=1;align=center;verticalAlign=middle;resizable=0;points=[];autosize=1;strokeColor=none;fillColor=none;" vertex="1" parent="1">
          <mxGeometry x="250" y="866" width="70" height="30" as="geometry" />
        </mxCell>
        <mxCell id="BG9GXNCdLVEFjjHwcvrj-98" value="Driver Info" style="text;html=1;align=center;verticalAlign=middle;resizable=0;points=[];autosize=1;strokeColor=none;fillColor=none;" vertex="1" parent="1">
          <mxGeometry x="255" y="896" width="80" height="30" as="geometry" />
        </mxCell>
        <mxCell id="BG9GXNCdLVEFjjHwcvrj-99" value="Payment Received" style="text;html=1;align=center;verticalAlign=middle;resizable=0;points=[];autosize=1;strokeColor=none;fillColor=none;" vertex="1" parent="1">
          <mxGeometry x="555" y="866" width="120" height="30" as="geometry" />
        </mxCell>
        <mxCell id="BG9GXNCdLVEFjjHwcvrj-100" value="Payment Verified" style="text;html=1;align=center;verticalAlign=middle;resizable=0;points=[];autosize=1;strokeColor=none;fillColor=none;" vertex="1" parent="1">
          <mxGeometry x="560" y="896" width="110" height="30" as="geometry" />
        </mxCell>
        <mxCell id="BG9GXNCdLVEFjjHwcvrj-101" value="Customer Info" style="text;html=1;align=center;verticalAlign=middle;resizable=0;points=[];autosize=1;strokeColor=none;fillColor=none;" vertex="1" parent="1">
          <mxGeometry x="264" y="1108" width="100" height="30" as="geometry" />
        </mxCell>
        <mxCell id="BG9GXNCdLVEFjjHwcvrj-102" value="Cab Scheduled" style="text;html=1;align=center;verticalAlign=middle;resizable=0;points=[];autosize=1;strokeColor=none;fillColor=none;" vertex="1" parent="1">
          <mxGeometry x="534" y="1076" width="110" height="30" as="geometry" />
        </mxCell>
        <mxCell id="BG9GXNCdLVEFjjHwcvrj-103" value="Ride completed" style="text;html=1;align=center;verticalAlign=middle;resizable=0;points=[];autosize=1;strokeColor=none;fillColor=none;" vertex="1" parent="1">
          <mxGeometry x="540" y="1096" width="110" height="30" as="geometry" />
        </mxCell>
      </root>
    </mxGraphModel>
  </diagram>
</mxfile>
